<?xml version="1.0" encoding="utf-8" ?><svg xmlns="http://www.w3.org/2000/svg" xmlns:xlink="http://www.w3.org/1999/xlink" width="1024" height="1024" viewBox="0 0 1024 1024"><path fill="#4B0C07" d="M623.707 143.749C665.536 143.446 707.366 143.422 749.196 143.679C752.329 143.691 755.452 143.64 758.599 143.669C784.037 143.977 808.408 139.161 827.842 159.708C839.741 172.288 844.358 184.04 844.466 201.233L844.372 610.708L844.439 729.567L844.482 764.298C844.478 771.59 844.734 781.382 843.674 788.327C841.004 805.493 832.908 821.354 820.573 833.587C800.342 853.847 778 857.898 750.967 858.027C721.635 882.194 708.217 880.992 672.259 881.04L628.235 881.055L492.72 881.063L368.526 881.029L328.737 881.114C311.147 881.171 300.285 882.797 283.93 875.095C278.975 872.506 274.414 869.227 270.382 865.354C249.726 845.367 251.654 829.571 251.446 803.17C251.267 788.504 251.25 773.836 251.394 759.169C251.493 736.37 251.335 713.57 250.921 690.773C244.036 697.138 237.022 705.722 227.526 707.474C223.034 708.302 214.09 707.145 210.732 703.899C201.25 694.731 189.196 683.687 181.415 673.042C180.225 671.015 179.475 667.798 179.161 665.495C176.687 647.339 195.897 636.434 205.35 623.393C202.931 617.185 199.701 611.411 197.003 604.388C182.13 603.52 160.439 607.677 149.7 598.135C145.005 594.032 142.2 588.182 141.94 581.952C141.69 576.853 142.263 570.877 141.973 565.947C139.176 518.424 159.866 525.018 196.306 524.109C199.472 516.507 201.316 511.057 204.941 503.357C195.104 493.948 178.325 482.255 178.162 469.131C178.071 461.827 179.912 454.763 185.503 449.502C194.175 442.114 203.885 428.292 214.032 423.444C230.544 415.555 241.859 429.236 251.363 438.354C252.106 431.06 251.924 420.937 251.943 413.429L252.013 375.037L252.089 247.144L251.985 212.403C251.938 190.9 251.374 175.845 267.877 159.311C275.745 151.317 286.001 146.1 297.096 144.448C304.532 143.3 322.072 143.826 330.372 143.825L394.755 143.815L623.707 143.749Z"/><path fill="#FAE0C9" d="M264.743 447.178C264.166 389.262 265.126 330.087 265.28 272.069L265.356 218.049C265.365 211.473 265.024 196.034 265.949 190.085C267.242 182.115 270.979 174.743 276.643 168.988C291.959 153.575 308.316 156.945 328.084 156.55C333.49 156.442 338.933 156.534 344.34 156.529L434.184 156.506L721.483 156.293C748.056 156.462 764.311 177.214 762.543 202.95C762.377 205.367 762.563 208.825 762.569 211.332L762.625 245.509L762.75 360.899L762.838 755.495L709.043 755.169C691.976 755.119 672.565 752.175 659.913 765.278C651.064 774.442 648.603 781.869 648.566 794.351L648.609 868.473L406.412 868.307L336.949 868.308C315.706 868.245 293.836 871.407 277.625 854.696C263.908 840.554 264.013 827.231 264.03 808.874L264.077 781.229L263.835 696.749C263.861 691.573 263.89 685.999 264.185 680.84C269.09 682.763 274.009 684.648 278.943 686.495C279.016 693.337 278.601 718.331 279.96 723.601C280.908 727.366 282.902 730.786 285.711 733.467C294.389 741.75 306.935 739.022 317.802 739.323C322.767 739.46 328.229 739.687 333.177 739.396C355.508 738.082 355.528 721.004 355.527 704.901L355.499 687.346C362.342 685.072 367.646 683.212 374.258 680.087L374.769 680.485C388.153 691.123 397.036 707.602 416.236 705.464C430.588 703.867 441.446 689.214 450.921 679.498C458.506 671.72 459.102 655.794 452.056 647.799C445.302 639.525 436.913 632.8 430.005 624.447C433.491 618.056 436.692 612.12 439.576 605.41C446.956 605.266 468.682 605.728 474.552 604.211C478.889 603.129 482.835 600.851 485.94 597.637C494.167 588.991 493.159 577.968 492.924 567.003C492.747 562.607 492.815 558.872 492.937 554.464C492.839 545.365 492.509 537.485 485.384 530.571C482.123 527.431 478.095 525.201 473.702 524.106C467.428 522.58 446.474 523.198 438.83 523.253C436.605 514.641 434.775 511.462 431.052 503.342C447.059 484.949 473.299 471.077 446.262 444.739C439.927 438.568 433.919 431.102 427.001 425.425C422.431 421.729 416.557 420.043 410.723 420.753C398.334 422.141 382.625 440.777 373.909 449.773C367.518 445.333 362.694 443.075 355.548 440.034C355.601 419.482 359.737 390.663 330.481 389.876C316.66 389.505 295.742 387.027 285.681 397.461C276.011 407.49 278.678 427.866 278.88 440.902C272.823 442.693 270.222 443.976 264.743 447.178Z"/><path fill="#965342" d="M492.937 554.464L654.832 554.45L706.689 554.344C714.99 554.329 723.334 554.265 731.604 554.423C735.665 554.5 739.245 556.953 738.96 561.279C738.686 565.433 735.352 567.171 731.631 567.208C722.752 567.297 713.912 567.152 705.049 567.132L653.412 567.162L492.924 567.003C492.747 562.607 492.815 558.872 492.937 554.464Z"/><path fill="#4B0C07" d="M676.86 671.428C681.928 672.666 685.038 675.257 682.851 680.858C682.308 682.248 681.735 682.594 680.469 683.464C669.17 691.233 657.52 698.454 646.005 705.888C624.614 719.912 603.121 733.778 581.526 747.486L544.849 770.658C538.991 774.401 528.585 781.774 522.797 784.063C520.839 784.027 520.936 784.073 519.307 783.007C516.39 777.856 518.79 762.974 519.351 756.815L523.066 716.026C509.651 736.864 492.904 756.496 478.843 776.957C477.111 779.478 474.493 783.359 472.259 785.389C468.475 788.828 460.575 785.368 461.446 779.817C463.267 763.682 464.425 746.926 466.762 730.891C459.802 737.007 453.932 744.27 447.798 751.222C438.136 762.172 428.415 773.149 418.648 784.008C415.416 787.601 415.182 787.545 410.59 787.646C410.005 787.335 409.409 787.035 408.877 786.635C407.383 785.512 406.272 783.805 406.093 781.925C405.67 777.502 410.102 773.496 412.783 770.433C423.093 758.654 433.743 747.174 444.076 735.414C451.099 727.422 461.823 714.179 469.521 707.677C470.81 706.589 471.858 705.796 473.614 705.761C475.721 705.719 478.328 706.879 479.63 708.563C483.032 712.96 477.611 749.285 476.669 756.921C479.88 752.361 483.794 747.744 487.192 743.208L512.373 709.213C517.366 702.525 522.267 695.077 527.645 688.803C530.166 685.863 538.698 687.008 538.525 693.185C538.307 700.958 537.565 708.443 536.89 716.178C535.616 731.946 534.085 747.693 532.298 763.411L627.271 702.591L657.027 683.159C662.209 679.796 671.361 673.584 676.86 671.428Z"/><path fill="#965342" d="M304.448 321.128C308.426 320.55 315.935 320.763 320.176 320.773L346.868 320.845L437.17 320.965L653.877 321.022L705.786 321.06C712.884 321.067 722.642 320.481 729.518 321.527C736.718 322.622 739.099 329.208 730.958 333.141L730.224 333.203C726.044 333.526 716.965 333.215 712.356 333.217L675.937 333.341L557.438 333.448L391.044 333.397L334.827 333.385C326.705 333.386 318.56 333.535 310.438 333.54C302.208 333.546 295.34 327.703 304.448 321.128Z"/><path fill="#965342" d="M301.603 218.912L319.993 218.906C321.315 225.469 324.819 235.516 326.936 242.011C329.029 248.433 331.497 257.11 333.944 263.225C338.107 249.597 342.634 231.944 347.275 219.084C353.269 218.871 359.991 218.982 366.038 218.957L366.044 292.476L351.029 292.391C350.89 285.656 351.012 278.517 351.014 271.75C351.064 265.308 351.149 259.017 350.898 252.576C346.664 264.661 342.756 279.795 338.627 292.471L329.421 292.408C325.236 279.185 319.057 263.676 316.737 250.272C316.079 263.429 316.471 279.399 316.485 292.772C312.042 292.976 306.291 292.731 301.755 292.665L301.603 218.912Z"/><path fill="#965342" d="M492.787 494.63C508.86 494.335 525.729 494.608 541.848 494.632L634.563 494.865L695.681 494.989C708.194 494.952 722.542 494.123 734.788 495.512C738.783 495.965 741.306 504.677 733.599 507.61C674.485 507.891 615.371 507.871 556.257 507.55L514.314 507.474C507.791 507.459 498.016 507.94 491.8 506.766C486.008 505.671 486.17 497.37 492.787 494.63Z"/><path fill="#965342" d="M496.213 434.239L644.688 434.105L697.64 434.044C704.17 434.018 730.491 432.997 736.389 435.321C740.43 436.913 740.918 446.37 730.625 446.8L566.424 446.883L522.136 446.853C513.435 446.88 504.841 446.918 496.063 446.807C489.812 446.728 483.872 443.661 489.137 436.819C491.141 434.216 493.153 434.361 496.213 434.239Z"/><path fill="#965342" d="M491.856 614.532C504.663 613.875 522.238 614.408 535.297 614.432L617.627 614.533L696.198 614.49C708.261 614.466 720.367 614.255 732.417 614.305C739.975 614.336 741.19 622.02 734.672 626.502C731.195 627.229 718.644 626.838 714.198 626.84L669.352 626.895L560.436 626.986C539.049 627.013 517.668 627.126 496.271 626.882C492.142 626.835 487.49 625.241 488.051 619.975C488.335 617.308 489.792 616.083 491.856 614.532Z"/><path fill="#965342" d="M450.649 218.723L452.448 218.751C455.42 220.786 471.873 255.189 474.968 261.119C475.219 247.11 475.397 233.1 475.5 219.088L490.276 219.024C490.168 243.52 490.238 268.016 490.488 292.51L477.389 292.685C477.19 292.614 476.976 292.574 476.791 292.47C473.73 290.75 456.188 254.967 453.519 249.212C453.656 263.457 454.049 278.377 453.725 292.558L439.096 292.543L439.077 219.043C443.032 219.041 446.696 218.905 450.649 218.723Z"/><path fill="#965342" d="M395.781 218.621L409.959 218.582C418.427 243.415 425.581 268.176 433.968 292.655C429.126 292.764 423.894 292.575 419.023 292.49L414.056 279.226L408.996 279.262L392.464 279.175C391.056 283.68 389.736 288.212 388.503 292.768L371.634 292.566C375.154 278.651 380.361 265.626 384.875 252.109C388.576 241.026 392.129 229.748 395.781 218.621Z"/><path fill="#FAE0C9" d="M402.534 240.281C403.831 242.726 409.23 263.101 410.245 266.73L402.375 266.827L395.344 266.849C397.673 257.975 400.07 249.119 402.534 240.281Z"/><path fill="#965342" d="M577.034 219.002C592.01 218.94 606.985 218.965 621.961 219.077L622.099 232.297C612.785 232.46 602.84 232.28 593.486 232.297L593.441 248.231C601.817 248.305 610.194 248.248 618.569 248.06L618.515 261.349C610.582 261.663 601.151 261.436 593.102 261.448L593.103 268.625L593.116 278.572L622.95 278.638C622.983 283.256 622.935 287.874 622.807 292.49L577.344 292.483C577.356 267.975 576.887 243.512 577.034 219.002Z"/><path fill="#965342" d="M654.734 217.702C663.074 217.986 668.345 219.238 675.868 222.834C674.044 227.764 673.056 230.499 671.573 235.696C665.2 232.791 654.449 228.56 648.737 234.106C639.392 243.178 658.584 247.588 663.815 250.124C672.026 254.104 678.346 259.532 678.652 269.14C679.231 287.268 664.999 293.23 649.568 293.392C640.644 292.441 637.003 291.183 628.934 287.204L631.831 274.598C640.151 277.318 661.996 285.849 662.515 270.977C662.847 261.447 630.33 260.075 629.921 243.358C629.501 226.186 639.892 219.059 654.734 217.702Z"/><path fill="#965342" d="M524.181 219.051L569.55 218.951C569.512 223.49 569.394 228.028 569.196 232.563L540.318 232.569L540.295 249.491L565.461 249.536C565.32 254.032 565.106 258.526 564.818 263.016L540.463 263.212L540.458 293.049L524.372 293.03C524.327 268.549 523.794 243.455 524.181 219.051Z"/><path fill="#965342" d="M726.558 218.749L733.142 218.74C733.104 223.35 732.985 227.96 732.785 232.567L716.685 232.721C716.441 252.648 716.768 272.613 716.042 292.519L699.998 292.507L700.012 282.25L699.994 232.808C694.836 232.525 688.389 232.712 683.137 232.727L683.068 218.875L726.558 218.749Z"/><path fill="#965342" d="M499.531 219.032L515.57 219.015L515.61 292.947L499.518 292.966L499.531 219.032Z"/><path fill="#B5CF4F" d="M258.278 463.504C261.427 462.46 291.2 450.276 291.18 450.429C296.81 407.614 276.11 400.609 334.626 403.536C336.821 404.969 338.907 406.333 340.254 408.651C345.212 417.182 339.544 446.785 343.96 450.516C346.514 452.673 355.866 455.126 359.66 456.728C363.997 458.56 372.516 463.47 376.843 463.414C383.699 463.325 403.519 434.802 411.922 434.087C414.789 433.843 417.302 435.524 419.393 437.287C424.006 441.175 444.045 459.951 444.29 464.875C444.744 474.031 422.155 492.705 415.761 500.002L415.328 500.502C417.372 505.931 420.893 512.18 423.143 517.925C425.26 523.333 427.363 531.001 429.927 535.757C442.518 542.974 480.1 523.363 479.361 553.716C479.361 563.26 482.625 590.175 469.562 591.317C457.199 592.397 443.632 591.575 431.11 592.013C428.495 597.919 426.218 604.147 423.56 609.915C421.047 615.37 416.222 620.98 414.404 626.967C418.48 633.082 425.136 638.389 430.19 643.936C434.554 647.721 440.017 652.631 442.673 657.772C444.076 660.486 444.583 663.431 443.507 666.351C441.689 671.281 421.961 690.349 417.015 692.359C414.408 693.419 411.608 693.282 409.012 692.257C401.8 689.41 390.783 677.114 385.135 671.259C383.275 669.331 380.642 665.932 377.987 665.14C376.383 664.661 374.873 664.958 373.321 665.487C367.889 667.34 362.747 670.829 357.39 673.034C353.762 674.527 348.476 675.254 345.265 677.187C343.808 678.064 343.025 679.733 342.643 681.331C340.423 690.608 344.513 709.535 342.012 719.38C341.201 722.57 339.533 723.784 336.821 725.464C330.18 725.763 298.876 727.465 294.874 724.099C293.473 722.92 292.794 720.93 292.477 719.189C291.92 716.136 292.288 712.781 292.335 709.685C292.454 701.761 293.321 689.745 292.198 682.241C291.859 679.973 291.139 677.92 289.142 676.631C285.851 674.507 280.777 673.337 277.094 671.819C272.767 670.036 268.579 667.745 264.147 666.247C262.938 665.838 261.443 665.404 260.151 665.521C252.585 666.207 233.735 694.116 224.129 694.868C221.01 695.112 217.145 691.624 214.995 689.616C209.591 684.568 195.706 671.932 192.527 666.272C191.996 665.325 191.789 664.193 191.789 663.115C191.788 661.427 192.03 659.483 192.84 657.981C195.884 652.344 209.413 639.788 214.528 634.364C225.808 622.992 219.388 623.014 213.73 610.06C212.676 607.648 207.066 592.252 205.903 591.826C192.293 586.839 170.902 595.836 158.454 587.817C153.61 584.257 155.442 552.333 155.525 545.747C157.565 542.073 160.522 538.24 165.117 537.774C176.629 536.674 188.214 537.716 199.85 537.603C209.945 538.124 208.731 526.616 211.926 519.592C212.951 517.338 219.995 503.583 219.715 502.523C215.526 490.025 194.028 481.272 191.837 467.991C190.605 460.528 212.661 441.156 218.021 436.12C224.858 429.696 235.508 441.679 240.754 446.796C246.501 452.464 252.343 458.034 258.278 463.504Z"/><path fill="#88AE2F" d="M214.528 634.364C219.378 638.973 229.655 652.485 236.767 652.538C241.328 652.572 246.517 645.228 252.356 646.598C259.647 647.055 265.108 652.443 271.371 655.339C297.051 667.213 324.683 669.319 351.744 660.879C358.395 659.707 374.684 649.4 380.487 649.98C391.033 651.034 399.848 664.151 411.779 665.499C424.94 666.986 432.494 655.64 430.19 643.936C434.554 647.721 440.017 652.631 442.673 657.772C444.076 660.486 444.583 663.431 443.507 666.351C441.689 671.281 421.961 690.349 417.015 692.359C414.408 693.419 411.608 693.282 409.012 692.257C401.8 689.41 390.783 677.114 385.135 671.259C383.275 669.331 380.642 665.932 377.987 665.14C376.383 664.661 374.873 664.958 373.321 665.487C367.889 667.34 362.747 670.829 357.39 673.034C353.762 674.527 348.476 675.254 345.265 677.187C343.808 678.064 343.025 679.733 342.643 681.331C340.423 690.608 344.513 709.535 342.012 719.38C341.201 722.57 339.533 723.784 336.821 725.464C330.18 725.763 298.876 727.465 294.874 724.099C293.473 722.92 292.794 720.93 292.477 719.189C291.92 716.136 292.288 712.781 292.335 709.685C292.454 701.761 293.321 689.745 292.198 682.241C291.859 679.973 291.139 677.92 289.142 676.631C285.851 674.507 280.777 673.337 277.094 671.819C272.767 670.036 268.579 667.745 264.147 666.247C262.938 665.838 261.443 665.404 260.151 665.521C252.585 666.207 233.735 694.116 224.129 694.868C221.01 695.112 217.145 691.624 214.995 689.616C209.591 684.568 195.706 671.932 192.527 666.272C191.996 665.325 191.789 664.193 191.789 663.115C191.788 661.427 192.03 659.483 192.84 657.981C195.884 652.344 209.413 639.788 214.528 634.364Z"/><path fill="#88AE2F" d="M431.11 592.013C437.852 564.532 452.153 582.793 469.311 570.192C473.741 566.939 478.63 559.325 479.361 553.716C479.361 563.26 482.625 590.175 469.562 591.317C457.199 592.397 443.632 591.575 431.11 592.013Z"/><path fill="#4B0C07" d="M314.038 486.795C354.676 485.063 389.02 516.61 390.738 557.248C392.457 597.887 360.898 632.22 320.26 633.925C279.64 635.629 245.326 604.089 243.608 563.469C241.891 522.85 273.42 488.526 314.038 486.795Z"/><path fill="#B5CF4F" d="M288.341 613.291C266.494 601.318 254.265 577.138 257.571 552.445C260.876 527.753 279.034 507.64 303.26 501.835C327.487 496.03 352.788 505.729 366.925 526.242C382.771 549.234 380.748 580.099 362.037 600.825C343.326 621.551 312.828 626.71 288.341 613.291Z"/><path fill="#88AE2F" d="M366.925 526.242C382.771 549.234 380.748 580.099 362.037 600.825C343.326 621.551 312.828 626.71 288.341 613.291C289.8 613.087 295.627 613.41 297.552 613.449C304.02 613.691 310.308 613.373 316.683 612.307C350.488 606.658 373.657 577.23 370.018 542.936C369.426 537.363 367.98 531.825 366.925 526.242Z"/><path fill="#965342" d="M757.141 156.558C769.3 156.597 781.906 155.892 794.011 156.568C802.59 157.401 811.291 161.758 817.691 167.291C824.88 173.504 831.689 185.803 832.122 195.333C832.74 208.892 832.504 222.853 832.536 236.451L832.674 315.588L832.816 567.774L833.002 715.349C833.038 728.817 833.146 742.285 833.329 755.753C833.498 771.193 834.528 785.454 828.648 800.085C823.342 813.285 815.736 822.759 804.683 831.473C791.566 841.057 777.037 846.309 760.704 846.487C775.954 824.643 775.575 812.838 775.44 787.397L775.268 754.05L775.183 637.867L774.994 201.986C774.999 181.915 771.704 171.114 757.141 156.558Z"/><path fill="#FAE0C9" d="M709.325 767.25C723.618 767.136 737.912 767.169 752.205 767.348C730.121 789.866 705.471 815.204 682.745 836.873C675.893 842.985 667.994 851.236 661.36 857.802C661.325 849.544 661.23 841.287 661.077 833.03C660.938 818.95 659.805 797.216 662.251 783.202C663.63 775.303 674.827 767.311 683.11 767.403C691.222 767.493 700.613 767.251 709.325 767.25Z"/><path fill="#FAE0C9" d="M761.858 774.868C763.124 776.119 763.017 780.443 763.049 782.236C763.523 808.814 764.472 827.95 744.001 848.074C720.034 871.636 699.815 868.474 669.937 868.532L669.253 868.315C671.195 863.753 709.844 827.804 716.095 820.773C729.372 805.839 748.546 790.776 761.858 774.868Z"/></svg>